<svg width="188" height="40" viewBox="0 0 188 40" fill="none" xmlns="http://www.w3.org/2000/svg">
<g clip-path="url(#clip0_892_3141)">
<path d="M27.9821 12.4308C26.0886 12.0573 24.3002 12.4308 22.8274 13.2844C21.2495 14.2447 19.2507 14.2447 17.6728 13.2844L17.0942 12.9643C15.5162 12.0573 14.4642 10.3501 14.5168 8.4828C14.5168 8.2694 14.5168 8.10935 14.5168 7.89594C14.2538 4.16138 11.0979 1.06702 7.41598 0.960321C2.83989 0.853619 -0.736831 5.01499 0.157349 9.76322C0.683337 12.6442 2.99768 14.9383 5.78542 15.5251C7.67898 15.8986 9.46734 15.5251 10.9401 14.6182C12.5181 13.6578 14.5168 13.6578 16.1474 14.5648L16.726 14.8849C18.3565 15.8452 19.3033 17.6592 19.2507 19.5798C19.2507 19.5798 19.2507 19.5798 19.2507 19.6331C19.2507 19.6331 19.2507 19.6331 19.2507 19.6865C19.2507 21.6071 18.3565 23.4211 16.726 24.3814L16.1474 24.7015C14.5168 25.6618 12.5707 25.6084 10.9401 24.6481C9.46734 23.7412 7.67898 23.3677 5.78542 23.7412C2.94509 24.328 0.683337 26.6221 0.157349 29.5031C-0.736831 34.2513 2.83989 38.4127 7.41598 38.306C11.1505 38.2526 14.3064 35.1583 14.4642 31.3703C14.4642 31.1569 14.4642 30.9435 14.4642 30.7835C14.4116 28.9162 15.4636 27.209 17.0416 26.302L17.6202 25.9819C19.1981 25.0749 21.1443 24.9682 22.7222 25.9819C23.8268 26.6755 25.0892 27.0489 26.4568 27.0489C30.9276 27.0489 34.4518 22.9409 33.5576 18.246C33.0316 15.3117 30.7699 13.0176 27.9821 12.4308Z" fill="#047FFF"/>
</g>
<path d="M58.3798 29.4198C56.5747 29.4198 54.9431 29.0033 53.4852 28.1702C52.0503 27.3139 50.9048 26.1568 50.0485 24.6988C49.2154 23.2408 48.7988 21.5977 48.7988 19.7694C48.7988 17.9412 49.1807 16.3097 49.9444 14.8748C50.7312 13.4168 51.7958 12.2713 53.138 11.4382C54.4803 10.5819 55.9961 10.1538 57.6855 10.1538C59.0509 10.1538 60.3122 10.443 61.4693 11.0216C62.6264 11.577 63.5984 12.3407 64.3853 13.3127V3.94001C64.3853 3.40774 64.5473 2.9796 64.8713 2.65561C65.2184 2.33161 65.6465 2.16962 66.1557 2.16962C66.6879 2.16962 67.1161 2.33161 67.4401 2.65561C67.7641 2.9796 67.9261 3.40774 67.9261 3.94001V19.7694C67.9261 21.5977 67.4979 23.2408 66.6417 24.6988C65.8085 26.1568 64.6745 27.3139 63.2397 28.1702C61.8049 29.0033 60.1849 29.4198 58.3798 29.4198ZM58.3798 26.2956C59.5601 26.2956 60.613 26.0179 61.5387 25.4625C62.4644 24.8839 63.1934 24.0971 63.7257 23.102C64.258 22.1068 64.5241 20.996 64.5241 19.7694C64.5241 18.5198 64.258 17.4089 63.7257 16.4369C63.1934 15.465 62.4644 14.7013 61.5387 14.1458C60.613 13.5673 59.5601 13.278 58.3798 13.278C57.2227 13.278 56.1697 13.5673 55.2209 14.1458C54.2952 14.7013 53.5546 15.465 52.9992 16.4369C52.4669 17.4089 52.2008 18.5198 52.2008 19.7694C52.2008 20.996 52.4669 22.1068 52.9992 23.102C53.5546 24.0971 54.2952 24.8839 55.2209 25.4625C56.1697 26.0179 57.2227 26.2956 58.3798 26.2956Z" fill="white"/>
<path d="M76.2964 29.281C75.7873 29.281 75.3591 29.119 75.012 28.795C74.688 28.4479 74.526 28.0197 74.526 27.5106V12.063C74.526 11.5307 74.688 11.1026 75.012 10.7786C75.3591 10.4546 75.7873 10.2926 76.2964 10.2926C76.8287 10.2926 77.2568 10.4546 77.5808 10.7786C77.9048 11.1026 78.0668 11.5307 78.0668 12.063V27.5106C78.0668 28.0197 77.9048 28.4479 77.5808 28.795C77.2568 29.119 76.8287 29.281 76.2964 29.281ZM76.2964 7.2031C75.6715 7.2031 75.1277 6.98324 74.6648 6.54354C74.2251 6.08069 74.0053 5.53684 74.0053 4.912C74.0053 4.28715 74.2251 3.75487 74.6648 3.31517C75.1277 2.85232 75.6715 2.62089 76.2964 2.62089C76.9212 2.62089 77.4535 2.85232 77.8932 3.31517C78.3561 3.75487 78.5875 4.28715 78.5875 4.912C78.5875 5.53684 78.3561 6.08069 77.8932 6.54354C77.4535 6.98324 76.9212 7.2031 76.2964 7.2031Z" fill="white"/>
<path d="M92.5687 29.4198C90.833 29.4198 89.294 29.0149 87.9518 28.2049C86.6327 27.3717 85.5912 26.2378 84.8275 24.8029C84.0638 23.345 83.682 21.6787 83.682 19.8042C83.682 17.9065 84.087 16.2402 84.897 14.8054C85.7301 13.3474 86.8641 12.2134 88.2989 11.4035C89.7337 10.5703 91.3884 10.1538 93.263 10.1538C95.1144 10.1538 96.7575 10.5703 98.1923 11.4035C99.6271 12.2134 100.75 13.3474 101.56 14.8054C102.393 16.2402 102.809 17.9065 102.809 19.8042H100.761C100.761 21.6787 100.402 23.345 99.685 24.8029C98.9907 26.2378 98.0303 27.3717 96.8038 28.2049C95.5772 29.0149 94.1655 29.4198 92.5687 29.4198ZM93.1935 37.161C91.5504 37.161 90.0115 36.837 88.5766 36.189C87.1418 35.541 85.9268 34.5922 84.9317 33.3425C84.6308 32.9491 84.5151 32.5441 84.5845 32.1275C84.6771 31.711 84.9085 31.3754 85.2788 31.1208C85.6954 30.8431 86.1235 30.7505 86.5632 30.8431C87.0261 30.9357 87.3964 31.1671 87.6741 31.5374C88.2989 32.3242 89.0858 32.9375 90.0346 33.3772C90.9834 33.8169 92.0596 34.0368 93.263 34.0368C94.3738 34.0368 95.3921 33.7706 96.3178 33.2384C97.2666 32.7061 98.0187 31.9192 98.5742 30.8778C99.1296 29.8364 99.4073 28.5636 99.4073 27.0593V22.13L100.553 19.0752L102.809 19.8042V27.3023C102.809 29.1306 102.404 30.7853 101.594 32.2664C100.784 33.7706 99.6503 34.9625 98.1923 35.8419C96.7575 36.7213 95.0912 37.161 93.1935 37.161ZM93.263 26.2956C94.4664 26.2956 95.5309 26.0179 96.4566 25.4625C97.3823 24.9071 98.0997 24.1434 98.6089 23.1714C99.1411 22.1994 99.4073 21.077 99.4073 19.8042C99.4073 18.5313 99.1411 17.4089 98.6089 16.4369C98.0997 15.4418 97.3823 14.6665 96.4566 14.1111C95.5309 13.5557 94.4664 13.278 93.263 13.278C92.0596 13.278 90.995 13.5557 90.0693 14.1111C89.1436 14.6665 88.4146 15.4418 87.8823 16.4369C87.3501 17.4089 87.0839 18.5313 87.0839 19.8042C87.0839 21.077 87.3501 22.1994 87.8823 23.1714C88.4146 24.1434 89.1436 24.9071 90.0693 25.4625C90.995 26.0179 92.0596 26.2956 93.263 26.2956Z" fill="white"/>
<path d="M116.688 29.4198C114.883 29.4198 113.251 29.0033 111.793 28.1702C110.358 27.3139 109.213 26.1568 108.357 24.6988C107.524 23.2408 107.107 21.5977 107.107 19.7694C107.107 17.9412 107.489 16.3097 108.252 14.8748C109.039 13.4168 110.104 12.2713 111.446 11.4382C112.788 10.5819 114.304 10.1538 115.994 10.1538C117.359 10.1538 118.62 10.443 119.777 11.0216C120.935 11.577 121.907 12.3407 122.693 13.3127V3.94001C122.693 3.40774 122.855 2.9796 123.179 2.65561C123.527 2.33161 123.955 2.16962 124.464 2.16962C124.996 2.16962 125.424 2.33161 125.748 2.65561C126.072 2.9796 126.234 3.40774 126.234 3.94001V19.7694C126.234 21.5977 125.806 23.2408 124.95 24.6988C124.117 26.1568 122.983 27.3139 121.548 28.1702C120.113 29.0033 118.493 29.4198 116.688 29.4198ZM116.688 26.2956C117.868 26.2956 118.921 26.0179 119.847 25.4625C120.773 24.8839 121.502 24.0971 122.034 23.102C122.566 22.1068 122.832 20.996 122.832 19.7694C122.832 18.5198 122.566 17.4089 122.034 16.4369C121.502 15.465 120.773 14.7013 119.847 14.1458C118.921 13.5673 117.868 13.278 116.688 13.278C115.531 13.278 114.478 13.5673 113.529 14.1458C112.603 14.7013 111.863 15.465 111.307 16.4369C110.775 17.4089 110.509 18.5198 110.509 19.7694C110.509 20.996 110.775 22.1068 111.307 23.102C111.863 24.0971 112.603 24.8839 113.529 25.4625C114.478 26.0179 115.531 26.2956 116.688 26.2956Z" fill="white"/>
<path d="M140.402 29.4198C138.712 29.4198 137.196 29.0033 135.854 28.1702C134.512 27.3139 133.447 26.1683 132.661 24.7335C131.897 23.2755 131.515 21.6324 131.515 19.8042C131.515 17.9759 131.932 16.3328 132.765 14.8748C133.621 13.4168 134.766 12.2713 136.201 11.4382C137.659 10.5819 139.291 10.1538 141.096 10.1538C142.901 10.1538 144.521 10.5819 145.956 11.4382C147.391 12.2713 148.525 13.4168 149.358 14.8748C150.214 16.3328 150.642 17.9759 150.642 19.8042H149.288C149.288 21.6324 148.895 23.2755 148.108 24.7335C147.344 26.1683 146.291 27.3139 144.949 28.1702C143.607 29.0033 142.091 29.4198 140.402 29.4198ZM141.096 26.2956C142.276 26.2956 143.329 26.0179 144.255 25.4625C145.181 24.8839 145.91 24.1087 146.442 23.1367C146.974 22.1415 147.24 21.0307 147.24 19.8042C147.24 18.5545 146.974 17.4436 146.442 16.4716C145.91 15.4765 145.181 14.7013 144.255 14.1458C143.329 13.5673 142.276 13.278 141.096 13.278C139.939 13.278 138.886 13.5673 137.937 14.1458C137.011 14.7013 136.271 15.4765 135.715 16.4716C135.183 17.4436 134.917 18.5545 134.917 19.8042C134.917 21.0307 135.183 22.1415 135.715 23.1367C136.271 24.1087 137.011 24.8839 137.937 25.4625C138.886 26.0179 139.939 26.2956 141.096 26.2956ZM148.872 29.3157C148.363 29.3157 147.935 29.1537 147.587 28.8297C147.263 28.4826 147.101 28.0544 147.101 27.5453V22.2341L147.761 18.5545L150.642 19.8042V27.5453C150.642 28.0544 150.469 28.4826 150.122 28.8297C149.798 29.1537 149.381 29.3157 148.872 29.3157Z" fill="white"/>
<path d="M162.82 29.281C161.663 29.281 160.621 28.9917 159.696 28.4132C158.77 27.8114 158.041 27.0015 157.509 25.9832C156.976 24.9649 156.71 23.8194 156.71 22.5465V5.98812C156.71 5.47899 156.872 5.06242 157.196 4.73843C157.52 4.41443 157.937 4.25244 158.446 4.25244C158.955 4.25244 159.372 4.41443 159.696 4.73843C160.02 5.06242 160.182 5.47899 160.182 5.98812V22.5465C160.182 23.4722 160.436 24.2475 160.945 24.8724C161.455 25.4972 162.079 25.8096 162.82 25.8096H164C164.417 25.8096 164.764 25.9716 165.042 26.2956C165.342 26.6196 165.493 27.0362 165.493 27.5453C165.493 28.0544 165.296 28.471 164.903 28.795C164.532 29.119 164.046 29.281 163.445 29.281H162.82ZM155.113 13.9723C154.627 13.9723 154.234 13.8334 153.933 13.5557C153.632 13.278 153.482 12.9309 153.482 12.5143C153.482 12.0514 153.632 11.6812 153.933 11.4035C154.234 11.1257 154.627 10.9869 155.113 10.9869H163.132C163.618 10.9869 164.012 11.1257 164.313 11.4035C164.613 11.6812 164.764 12.0514 164.764 12.5143C164.764 12.9309 164.613 13.278 164.313 13.5557C164.012 13.8334 163.618 13.9723 163.132 13.9723H155.113Z" fill="white"/>
<path d="M177.76 29.4198C176.07 29.4198 174.554 29.0033 173.212 28.1702C171.87 27.3139 170.805 26.1683 170.018 24.7335C169.255 23.2755 168.873 21.6324 168.873 19.8042C168.873 17.9759 169.289 16.3328 170.123 14.8748C170.979 13.4168 172.124 12.2713 173.559 11.4382C175.017 10.5819 176.649 10.1538 178.454 10.1538C180.259 10.1538 181.879 10.5819 183.314 11.4382C184.749 12.2713 185.883 13.4168 186.716 14.8748C187.572 16.3328 188 17.9759 188 19.8042H186.646C186.646 21.6324 186.253 23.2755 185.466 24.7335C184.702 26.1683 183.649 27.3139 182.307 28.1702C180.965 29.0033 179.449 29.4198 177.76 29.4198ZM178.454 26.2956C179.634 26.2956 180.687 26.0179 181.613 25.4625C182.538 24.8839 183.267 24.1087 183.8 23.1367C184.332 22.1415 184.598 21.0307 184.598 19.8042C184.598 18.5545 184.332 17.4436 183.8 16.4716C183.267 15.4765 182.538 14.7013 181.613 14.1458C180.687 13.5673 179.634 13.278 178.454 13.278C177.297 13.278 176.244 13.5673 175.295 14.1458C174.369 14.7013 173.629 15.4765 173.073 16.4716C172.541 17.4436 172.275 18.5545 172.275 19.8042C172.275 21.0307 172.541 22.1415 173.073 23.1367C173.629 24.1087 174.369 24.8839 175.295 25.4625C176.244 26.0179 177.297 26.2956 178.454 26.2956ZM186.23 29.3157C185.721 29.3157 185.292 29.1537 184.945 28.8297C184.621 28.4826 184.459 28.0544 184.459 27.5453V22.2341L185.119 18.5545L188 19.8042V27.5453C188 28.0544 187.827 28.4826 187.479 28.8297C187.155 29.1537 186.739 29.3157 186.23 29.3157Z" fill="white"/>
<defs>
<clipPath id="clip0_892_3141">
<rect width="33.6289" height="39.0529" fill="white"/>
</clipPath>
</defs>
</svg>
