<svg width="18" height="14" viewBox="0 0 18 14" fill="none" xmlns="http://www.w3.org/2000/svg">
<path fill-rule="evenodd" clip-rule="evenodd" d="M14.8337 0.333496C16.2144 0.333496 17.3337 1.45278 17.3337 2.8335V11.1668C17.3337 12.5475 16.2144 13.6668 14.8337 13.6668H3.16699C1.78628 13.6668 0.666992 12.5475 0.666992 11.1668V2.8335C0.666992 1.45278 1.78628 0.333496 3.16699 0.333496H14.8337ZM15.667 3.10683L9.54908 8.46064C9.26107 8.71265 8.84287 8.73365 8.53317 8.52364L8.45157 8.46064L2.33366 3.10766V11.1668C2.33366 11.6271 2.70675 12.0002 3.16699 12.0002H14.8337C15.2939 12.0002 15.667 11.6271 15.667 11.1668V3.10683ZM14.4003 2.00016H3.59866L9.00033 6.72619L14.4003 2.00016Z" fill="url(#paint0_linear_1608_826)"/>
<defs>
<linearGradient id="paint0_linear_1608_826" x1="0.666992" y1="13.6668" x2="19.5482" y2="8.62205" gradientUnits="userSpaceOnUse">
<stop stop-color="#047FFF"/>
<stop offset="1" stop-color="#6304FF"/>
</linearGradient>
</defs>
</svg>
