<svg width="511" height="412" viewBox="0 0 511 412" fill="none" xmlns="http://www.w3.org/2000/svg">
<g clip-path="url(#clip0_970_2451)">
<path opacity="0.3" d="M503.523 291.45C513.486 281.524 513.486 265.431 503.523 255.505C493.56 245.579 477.406 245.579 467.443 255.505C457.479 265.431 457.479 281.524 467.443 291.45C477.406 301.376 493.56 301.376 503.523 291.45Z" fill="#047FFF"/>
<path opacity="0.3" d="M93.1751 123.501C108.38 108.353 108.38 83.7943 93.1751 68.6469C77.9705 53.4995 53.319 53.4995 38.1144 68.6469C22.9098 83.7943 22.9098 108.353 38.1144 123.501C53.319 138.648 77.9705 138.648 93.1751 123.501Z" fill="#047FFF"/>
<path opacity="0.3" d="M200.299 58.8131C211.503 58.8131 220.586 49.7647 220.586 38.6029C220.586 27.441 211.503 18.3926 200.299 18.3926C189.095 18.3926 180.013 27.441 180.013 38.6029C180.013 49.7647 189.095 58.8131 200.299 58.8131Z" fill="#047FFF"/>
<path d="M171.23 48.5848C169.962 48.5848 168.694 48.4924 167.457 48.2767L167.581 47.5065C168.787 47.6914 170.024 47.7838 171.23 47.7838H171.384V48.554L171.23 48.5848ZM175.281 48.2459L175.157 47.4757C176.394 47.2601 177.631 46.952 178.837 46.5515L179.085 47.2909C177.848 47.6914 176.58 48.0303 175.281 48.2459ZM163.653 47.3833C162.416 46.9828 161.179 46.459 160.035 45.8737L160.375 45.1959C161.488 45.7813 162.664 46.2742 163.87 46.6439L163.653 47.3833ZM182.703 45.7196L182.332 45.0419C183.445 44.4565 184.527 43.7787 185.548 43.0085L186.012 43.6247C184.96 44.3949 183.847 45.1035 182.703 45.7196ZM156.695 43.8095C155.644 43.0393 154.654 42.1767 153.726 41.2524L154.283 40.7287C155.18 41.6221 156.138 42.454 157.159 43.2242L156.695 43.8095ZM188.919 41.006L188.362 40.4822C189.228 39.558 190.032 38.5721 190.743 37.5246L191.393 37.9559C190.65 39.065 189.815 40.0817 188.919 41.006ZM151.252 38.2332C150.51 37.1549 149.83 36.0458 149.273 34.8751L149.984 34.5362C150.541 35.6761 151.19 36.7852 151.902 37.8019L151.252 38.2332ZM193.341 34.567L192.63 34.2281C193.155 33.0882 193.619 31.8867 193.959 30.6852L194.702 30.9008C194.361 32.164 193.897 33.3963 193.341 34.567ZM147.851 31.2089C147.48 29.9458 147.201 28.6826 147.016 27.3887L147.789 27.2962C147.943 28.5286 148.222 29.7917 148.593 30.9932L147.851 31.2089ZM195.475 27.0806L194.702 26.9882C194.794 26.0947 194.856 25.1705 194.856 24.2462C194.856 23.9073 194.856 23.5376 194.825 23.1987L195.598 23.1679C195.629 23.5376 195.629 23.8765 195.629 24.2462C195.66 25.2013 195.598 26.1563 195.475 27.0806ZM147.603 23.5068L146.83 23.476C146.861 22.1821 147.016 20.8573 147.263 19.5942L148.036 19.7482C147.789 20.9805 147.634 22.2437 147.603 23.5068ZM194.361 19.4709C194.114 18.2386 193.743 17.0063 193.279 15.8355L193.99 15.5583C194.454 16.7906 194.825 18.0537 195.104 19.3169L194.361 19.4709ZM149.057 16.1128L148.345 15.8355C148.809 14.6032 149.366 13.4325 149.984 12.2926L150.665 12.6623C150.046 13.7714 149.49 14.9113 149.057 16.1128ZM193.217 15.6507C192.753 14.48 192.197 13.3401 191.547 12.2618L192.228 11.8613C192.877 12.9704 193.465 14.1719 193.959 15.3734L193.217 15.6507ZM152.799 9.51983L152.18 9.02689C152.984 8.01022 153.912 7.05516 154.871 6.19253L155.396 6.77788C154.468 7.60971 153.572 8.53396 152.799 9.51983ZM189.382 9.15013C188.578 8.19507 187.682 7.27082 186.723 6.43899L187.218 5.85363C188.207 6.71627 189.135 7.64052 189.97 8.62638L189.382 9.15013ZM158.396 4.46726L157.963 3.82028C159.045 3.11169 160.22 2.49552 161.427 1.97178L161.736 2.68037C160.592 3.20412 159.478 3.78947 158.396 4.46726ZM183.661 4.22079C182.579 3.57382 181.435 2.98846 180.291 2.49552L180.6 1.78693C181.806 2.27986 182.981 2.89603 184.094 3.57382L183.661 4.22079ZM165.354 1.44804L165.168 0.708639C166.436 0.369747 167.735 0.154088 169.034 0.030855L169.096 0.801064C167.828 0.924297 166.591 1.13996 165.354 1.44804ZM176.642 1.32481C175.405 1.04753 174.137 0.831872 172.9 0.739447L172.961 -0.0307617C174.26 0.0616633 175.559 0.246513 176.827 0.554597L176.642 1.32481Z" fill="#99CBFF"/>
<path d="M414.793 317.757V316.987C416.061 316.956 417.36 316.925 418.628 316.833L418.689 317.603C417.391 317.665 416.092 317.726 414.793 317.757ZM410.927 317.726C409.629 317.696 408.33 317.634 407.062 317.511L407.124 316.741C408.392 316.833 409.69 316.895 410.958 316.925L410.927 317.726ZM422.555 317.264L422.462 316.494C423.73 316.34 425.029 316.186 426.266 315.97L426.39 316.741C425.122 316.956 423.823 317.11 422.555 317.264ZM403.165 317.141C401.897 316.987 400.599 316.802 399.331 316.587L399.454 315.816C400.722 316.032 401.99 316.217 403.258 316.371L403.165 317.141ZM430.224 316.032L430.07 315.293C431.338 315.046 432.575 314.738 433.812 314.43L433.997 315.169C432.76 315.477 431.492 315.786 430.224 316.032ZM395.527 315.847C394.259 315.57 392.991 315.262 391.754 314.923L391.971 314.183C393.207 314.522 394.444 314.83 395.712 315.108L395.527 315.847ZM437.739 314.122L437.523 313.382C438.729 313.013 439.966 312.612 441.172 312.15L441.45 312.89C440.213 313.321 438.976 313.721 437.739 314.122ZM388.043 313.814C386.806 313.413 385.569 312.982 384.363 312.551L384.641 311.842C385.847 312.304 387.053 312.705 388.29 313.105L388.043 313.814ZM445.006 311.472L444.697 310.764C445.872 310.271 447.047 309.747 448.192 309.223L448.532 309.932C447.388 310.456 446.212 311.01 445.006 311.472ZM380.745 311.103C379.57 310.579 378.364 310.055 377.219 309.501L377.56 308.823C378.704 309.377 379.879 309.932 381.054 310.425L380.745 311.103ZM452.026 308.176L451.655 307.498C452.768 306.913 453.913 306.266 454.995 305.619L455.397 306.297C454.284 306.944 453.17 307.59 452.026 308.176ZM373.756 307.714C372.612 307.098 371.498 306.451 370.385 305.773L370.787 305.126C371.869 305.804 373.014 306.451 374.127 307.036L373.756 307.714ZM458.675 304.232L458.242 303.585C459.325 302.877 460.376 302.137 461.396 301.398L461.86 302.014C460.84 302.784 459.757 303.524 458.675 304.232ZM367.138 303.678C366.087 302.969 365.004 302.199 363.984 301.429L364.448 300.813C365.468 301.583 366.519 302.322 367.571 303.031L367.138 303.678ZM464.953 299.704L464.458 299.118C465.448 298.317 466.437 297.485 467.396 296.654L467.922 297.239C466.963 298.04 465.973 298.903 464.953 299.704ZM360.922 299.026C359.932 298.194 358.943 297.362 357.984 296.499L358.51 295.914C359.469 296.777 360.427 297.609 361.417 298.41L360.922 299.026ZM470.767 294.589L470.241 294.035C471.169 293.141 472.066 292.217 472.931 291.293L473.488 291.817C472.622 292.741 471.694 293.665 470.767 294.589ZM355.17 293.819C354.242 292.926 353.346 291.971 352.48 291.016L353.036 290.492C353.902 291.416 354.799 292.371 355.696 293.265L355.17 293.819ZM476.086 288.921L475.498 288.428C476.333 287.473 477.137 286.456 477.941 285.47L478.56 285.932C477.756 286.949 476.921 287.966 476.086 288.921ZM349.913 288.12C349.078 287.134 348.274 286.117 347.501 285.1L348.119 284.638C348.892 285.655 349.696 286.672 350.5 287.627L349.913 288.12ZM480.848 282.821L480.23 282.389C480.972 281.342 481.683 280.263 482.363 279.216L483.013 279.617C482.333 280.695 481.59 281.773 480.848 282.821ZM345.243 281.958C344.501 280.91 343.79 279.801 343.14 278.723L343.79 278.323C344.47 279.401 345.15 280.479 345.893 281.527L345.243 281.958ZM485.023 276.289L484.343 275.92C484.961 274.81 485.58 273.671 486.167 272.531L486.848 272.869C486.291 274.04 485.641 275.18 485.023 276.289ZM341.161 275.396C340.543 274.287 339.924 273.116 339.368 271.976L340.048 271.637C340.605 272.777 341.223 273.917 341.842 275.026L341.161 275.396ZM488.548 269.388L487.837 269.08C488.363 267.909 488.858 266.739 489.352 265.537L490.064 265.814C489.6 267.016 489.074 268.217 488.548 269.388ZM337.729 268.464C337.203 267.293 336.708 266.092 336.275 264.89L336.986 264.613C337.45 265.784 337.914 266.985 338.44 268.156L337.729 268.464ZM491.424 262.179L490.682 261.933C491.084 260.731 491.486 259.499 491.826 258.266L492.569 258.482C492.228 259.714 491.826 260.977 491.424 262.179ZM334.976 261.255C334.574 260.022 334.203 258.79 333.863 257.558L334.605 257.342C334.945 258.574 335.316 259.807 335.718 261.008L334.976 261.255ZM493.558 254.754L492.816 254.569C493.125 253.337 493.373 252.074 493.62 250.811L494.393 250.965C494.146 252.228 493.867 253.522 493.558 254.754ZM332.904 253.799C332.626 252.567 332.348 251.273 332.131 250.01L332.904 249.886C333.121 251.15 333.399 252.413 333.677 253.645L332.904 253.799ZM495.012 247.145L494.239 247.052C494.424 245.789 494.579 244.526 494.671 243.232L495.445 243.293C495.352 244.587 495.197 245.881 495.012 247.145ZM331.544 246.189C331.389 244.926 331.234 243.632 331.142 242.338L331.915 242.277C332.008 243.54 332.162 244.834 332.317 246.097L331.544 246.189ZM495.723 239.442L494.95 239.412C495.012 238.148 495.043 236.855 495.043 235.591H495.816C495.816 236.885 495.785 238.179 495.723 239.442ZM330.925 238.487C330.894 237.532 330.863 236.546 330.863 235.591C330.863 235.253 330.863 234.944 330.863 234.606H331.636C331.636 234.914 331.636 235.252 331.636 235.561C331.636 236.516 331.667 237.471 331.698 238.426L330.925 238.487ZM495.043 233.712C495.012 232.449 494.95 231.155 494.857 229.892L495.63 229.83C495.723 231.093 495.785 232.418 495.816 233.681L495.043 233.712ZM331.76 230.785L330.987 230.754C331.049 229.461 331.173 228.167 331.296 226.903L332.069 226.996C331.946 228.228 331.853 229.522 331.76 230.785ZM494.486 226.041C494.331 224.778 494.146 223.515 493.96 222.251L494.733 222.128C494.95 223.391 495.135 224.685 495.259 225.948L494.486 226.041ZM332.564 223.176L331.791 223.052C331.977 221.789 332.224 220.495 332.471 219.232L333.244 219.386C332.997 220.649 332.781 221.912 332.564 223.176ZM493.249 218.493C492.971 217.26 492.692 215.997 492.352 214.765L493.094 214.58C493.434 215.812 493.713 217.076 493.991 218.339L493.249 218.493ZM334.11 215.658L333.368 215.474C333.677 214.241 334.018 212.978 334.42 211.746L335.162 211.961C334.76 213.194 334.42 214.426 334.11 215.658ZM491.301 211.099C490.93 209.897 490.497 208.665 490.064 207.463L490.775 207.186C491.208 208.388 491.641 209.62 492.043 210.852L491.301 211.099ZM336.337 208.326L335.595 208.08C336.028 206.878 336.492 205.646 336.986 204.444L337.698 204.721C337.234 205.923 336.77 207.124 336.337 208.326ZM488.641 203.92C488.146 202.75 487.621 201.579 487.064 200.439L487.775 200.1C488.332 201.271 488.858 202.442 489.383 203.612L488.641 203.92ZM339.244 201.209L338.533 200.87C339.089 199.7 339.646 198.529 340.264 197.389L340.945 197.759C340.357 198.929 339.801 200.069 339.244 201.209ZM485.301 197.019C484.714 195.91 484.064 194.801 483.415 193.692L484.064 193.292C484.745 194.401 485.363 195.51 485.982 196.65L485.301 197.019ZM342.831 194.431L342.151 194.031C342.8 192.922 343.481 191.813 344.192 190.734L344.841 191.166C344.161 192.244 343.481 193.322 342.831 194.431ZM481.343 190.457C480.632 189.41 479.889 188.362 479.147 187.315L479.766 186.853C480.539 187.9 481.281 188.948 481.992 190.026L481.343 190.457ZM347.037 188.023L346.418 187.561C347.161 186.514 347.965 185.497 348.769 184.48L349.387 184.973C348.552 185.959 347.779 186.976 347.037 188.023ZM476.797 184.296C475.993 183.31 475.158 182.324 474.292 181.369L474.88 180.845C475.746 181.8 476.58 182.786 477.385 183.803L476.797 184.296ZM351.83 182.016L351.243 181.523C352.078 180.568 352.974 179.582 353.871 178.658L354.428 179.181C353.531 180.106 352.665 181.061 351.83 182.016ZM471.663 178.596C470.767 177.672 469.839 176.778 468.911 175.916L469.437 175.361C470.365 176.224 471.323 177.148 472.22 178.072L471.663 178.596ZM357.149 176.501L356.624 175.946C357.551 175.053 358.541 174.19 359.5 173.359L359.994 173.944C359.036 174.745 358.077 175.608 357.149 176.501ZM466.035 173.359C465.077 172.527 464.056 171.726 463.036 170.955L463.499 170.339C464.52 171.11 465.54 171.941 466.53 172.773L466.035 173.359ZM362.994 171.479L362.53 170.863C363.551 170.062 364.602 169.292 365.654 168.552L366.087 169.169C365.004 169.939 363.984 170.709 362.994 171.479ZM459.943 168.706C458.892 167.967 457.809 167.258 456.727 166.581L457.129 165.934C458.211 166.612 459.325 167.32 460.376 168.06L459.943 168.706ZM369.241 167.043L368.808 166.396C369.89 165.718 371.004 165.04 372.117 164.393L372.519 165.071C371.406 165.687 370.323 166.365 369.241 167.043ZM453.418 164.64C452.305 164.024 451.16 163.407 450.016 162.822L450.356 162.144C451.501 162.73 452.676 163.346 453.789 163.962L453.418 164.64ZM375.89 163.223L375.549 162.545C376.694 161.959 377.869 161.374 379.044 160.85L379.353 161.559C378.178 162.083 377.034 162.637 375.89 163.223ZM446.522 161.189C445.347 160.666 444.171 160.173 442.965 159.71L443.244 159.002C444.45 159.464 445.656 159.957 446.831 160.481L446.522 161.189ZM382.879 160.049L382.6 159.341C383.806 158.848 385.012 158.416 386.249 157.985L386.497 158.725C385.26 159.125 384.054 159.556 382.879 160.049ZM439.347 158.386C438.141 157.985 436.904 157.615 435.667 157.246L435.884 156.506C437.121 156.845 438.358 157.246 439.595 157.646L439.347 158.386ZM390.115 157.523L389.899 156.784C391.136 156.414 392.403 156.075 393.64 155.767L393.826 156.506C392.589 156.814 391.352 157.153 390.115 157.523ZM431.956 156.322C430.719 156.044 429.451 155.767 428.183 155.551L428.338 154.781C429.606 155.028 430.874 155.274 432.142 155.582L431.956 156.322ZM397.599 155.705L397.444 154.935C398.712 154.689 400.011 154.473 401.279 154.288L401.403 155.058C400.135 155.243 398.836 155.459 397.599 155.705ZM424.38 154.935C423.112 154.75 421.844 154.627 420.545 154.504L420.607 153.734C421.906 153.857 423.174 153.98 424.472 154.165L424.38 154.935ZM405.206 154.596L405.144 153.826C406.412 153.703 407.711 153.61 409.01 153.549L409.041 154.319C407.773 154.35 406.474 154.473 405.206 154.596ZM416.741 154.257C415.628 154.227 414.484 154.196 413.339 154.196C413.185 154.196 413.03 154.196 412.876 154.196V153.426C413.03 153.426 413.185 153.426 413.339 153.426C414.484 153.426 415.628 153.456 416.772 153.487L416.741 154.257Z" fill="#99CBFF"/>
<path d="M78.7029 227.643C77.404 227.643 76.1052 227.581 74.8064 227.489L74.8682 226.719C76.1361 226.811 77.435 226.873 78.7029 226.873V227.643ZM82.5994 227.551L82.5376 226.78C83.8055 226.688 85.1043 226.565 86.3413 226.411L86.4341 227.181C85.1971 227.335 83.8982 227.458 82.5994 227.551ZM70.9408 227.058C69.6729 226.873 68.374 226.626 67.1061 226.349L67.2607 225.61C68.4977 225.887 69.7656 226.133 71.0336 226.318L70.9408 227.058ZM90.2997 226.472L90.145 225.733C91.382 225.486 92.6499 225.148 93.856 224.809L94.0725 225.548C92.8355 225.918 91.5676 226.226 90.2997 226.472ZM63.3642 225.363C62.1272 224.993 60.8903 224.562 59.6842 224.1L59.9625 223.391C61.1686 223.854 62.3746 224.254 63.6116 224.624L63.3642 225.363ZM97.7834 224.347L97.5051 223.638C98.7112 223.207 99.8863 222.714 101.061 222.19L101.371 222.899C100.196 223.391 98.9895 223.884 97.7834 224.347ZM56.0969 222.59C54.9218 222.036 53.7466 221.451 52.6334 220.834L53.0044 220.157C54.1177 220.773 55.262 221.358 56.4371 221.913L56.0969 222.59ZM104.865 221.142L104.494 220.465C105.607 219.848 106.721 219.201 107.803 218.524L108.205 219.171C107.123 219.879 105.978 220.526 104.865 221.142ZM49.2935 218.832C48.2111 218.123 47.1597 217.384 46.1082 216.583L46.5721 215.967C47.5926 216.737 48.6441 217.476 49.6955 218.185L49.2935 218.832ZM111.39 216.983L110.926 216.367C111.947 215.597 112.967 214.796 113.926 213.964L114.421 214.549C113.462 215.412 112.442 216.213 111.39 216.983ZM43.1085 214.118C42.1499 213.256 41.1912 212.362 40.2944 211.438L40.851 210.883C41.7479 211.777 42.6756 212.67 43.6343 213.502L43.1085 214.118ZM117.297 211.931L116.74 211.376C117.637 210.483 118.534 209.558 119.369 208.573L119.956 209.066C119.121 210.082 118.225 211.037 117.297 211.931ZM37.6658 208.603C36.8308 207.618 36.0268 206.601 35.2537 205.553L35.8722 205.091C36.6143 206.108 37.4184 207.125 38.2534 208.08L37.6658 208.603ZM122.4 206.077L121.781 205.615C122.554 204.598 123.296 203.551 123.977 202.473L124.626 202.904C123.946 203.982 123.204 205.06 122.4 206.077ZM33.058 202.349C32.3777 201.271 31.6973 200.131 31.1097 198.991L31.7901 198.622C32.3777 199.731 33.0271 200.84 33.7074 201.918L33.058 202.349ZM126.636 199.577L125.956 199.207C126.574 198.098 127.162 196.958 127.688 195.787L128.399 196.095C127.842 197.297 127.255 198.437 126.636 199.577ZM29.378 195.541C28.8522 194.37 28.3575 193.168 27.9245 191.936L28.6667 191.69C29.0996 192.891 29.5944 194.062 30.0892 195.233L29.378 195.541ZM129.883 192.521L129.172 192.244C129.605 191.043 130.038 189.841 130.378 188.609L131.12 188.824C130.749 190.088 130.347 191.32 129.883 192.521ZM26.7494 188.239C26.4092 187.007 26.0999 185.744 25.8216 184.48L26.5638 184.326C26.8112 185.559 27.1205 186.822 27.4606 188.054L26.7494 188.239ZM132.079 185.097L131.337 184.943C131.615 183.71 131.832 182.447 132.017 181.184L132.79 181.307C132.605 182.57 132.357 183.834 132.079 185.097ZM25.1722 180.66C25.0176 179.397 24.8939 178.103 24.8011 176.809L25.5742 176.778C25.6361 178.042 25.7598 179.336 25.9453 180.568L25.1722 180.66ZM133.192 177.425L132.419 177.364C132.512 176.101 132.543 174.807 132.543 173.544H133.316C133.316 174.837 133.285 176.162 133.192 177.425ZM25.5124 172.927H24.7393C24.7393 171.633 24.8011 170.339 24.9248 169.046L25.6979 169.107C25.5742 170.37 25.5124 171.664 25.5124 172.927ZM132.481 170.986C132.419 169.723 132.326 168.429 132.172 167.166L132.945 167.074C133.099 168.337 133.192 169.662 133.254 170.925L132.481 170.986ZM26.1309 165.318L25.3578 165.194C25.5433 163.931 25.7907 162.637 26.0999 161.374L26.8421 161.559C26.5638 162.791 26.3164 164.055 26.1309 165.318ZM131.584 163.408C131.337 162.175 131.058 160.912 130.718 159.68L131.46 159.495C131.801 160.727 132.079 162.021 132.326 163.284L131.584 163.408ZM27.8317 157.862L27.0895 157.646C27.4606 156.414 27.8936 155.182 28.3574 153.98L29.0687 154.258C28.6358 155.428 28.2338 156.661 27.8317 157.862ZM129.605 156.044C129.172 154.843 128.708 153.641 128.213 152.501L128.925 152.193C129.45 153.364 129.914 154.596 130.347 155.798L129.605 156.044ZM30.615 150.745L29.9037 150.406C30.4603 149.236 31.0479 148.096 31.6973 146.956L32.3777 147.326C31.7592 148.466 31.1716 149.605 30.615 150.745ZM126.574 149.02C125.987 147.88 125.368 146.771 124.688 145.693L125.337 145.292C126.018 146.401 126.667 147.51 127.255 148.65L126.574 149.02ZM34.3878 144.091L33.7383 143.659C34.4496 142.581 35.2227 141.534 35.9959 140.517L36.6143 140.979C35.8412 141.996 35.099 143.043 34.3878 144.091ZM122.554 142.52C121.812 141.503 121.008 140.486 120.204 139.5L120.791 139.007C121.626 139.993 122.43 141.041 123.173 142.088L122.554 142.52ZM39.0883 138.052L38.5008 137.529C39.3666 136.574 40.2635 135.618 41.1912 134.725L41.7169 135.28C40.8201 136.173 39.9233 137.097 39.0883 138.052ZM117.668 136.635C116.771 135.711 115.874 134.817 114.916 133.986L115.441 133.4C116.4 134.263 117.328 135.187 118.225 136.111L117.668 136.635ZM44.5929 132.722L44.0981 132.137C45.0877 131.305 46.1082 130.504 47.1597 129.765L47.6235 130.381C46.5721 131.12 45.5516 131.921 44.5929 132.722ZM111.978 131.521C110.988 130.751 109.937 129.981 108.885 129.272L109.318 128.625C110.401 129.334 111.452 130.104 112.473 130.905L111.978 131.521ZM50.8088 128.224L50.4068 127.577C51.4891 126.9 52.6334 126.253 53.7776 125.637L54.1487 126.314C53.0044 126.931 51.8602 127.577 50.8088 128.224ZM105.607 127.269C104.494 126.622 103.35 126.037 102.206 125.483L102.546 124.774C103.721 125.328 104.865 125.945 105.978 126.592L105.607 127.269ZM57.5813 124.682L57.2721 123.973C58.4472 123.449 59.6842 122.987 60.8903 122.556L61.1376 123.295C59.9316 123.696 58.7255 124.189 57.5813 124.682ZM98.6803 123.942C97.5051 123.48 96.2681 123.049 95.0621 122.679L95.2785 121.94C96.5155 122.34 97.7525 122.771 98.9586 123.234L98.6803 123.942ZM64.7868 122.124L64.5703 121.385C65.8073 121.046 67.0752 120.738 68.3431 120.492L68.4977 121.262C67.2607 121.508 66.0238 121.786 64.7868 122.124ZM91.382 121.662C90.145 121.385 88.8771 121.108 87.6092 120.923L87.7329 120.153C89.0008 120.368 90.2997 120.615 91.5366 120.892L91.382 121.662ZM72.3015 120.646L72.2087 119.875C73.4766 119.721 74.8064 119.598 76.0743 119.537L76.1052 120.307C74.8682 120.368 73.5694 120.492 72.3015 120.646ZM83.8055 120.43C82.5376 120.307 81.2387 120.245 79.9708 120.214V119.444C81.2696 119.475 82.5685 119.537 83.8673 119.66L83.8055 120.43Z" fill="#99CBFF"/>
<path d="M296.444 43.8711C289.238 43.8711 283.394 38.0484 283.394 30.87C283.394 23.6917 289.238 17.8689 296.444 17.8689C303.649 17.8689 309.494 23.6917 309.494 30.87C309.494 38.0484 303.649 43.8711 296.444 43.8711ZM296.444 18.4543C289.578 18.4543 283.981 24.0306 283.981 30.87C283.981 37.7095 289.578 43.2858 296.444 43.2858C303.309 43.2858 308.906 37.7095 308.906 30.87C308.937 24.0306 303.34 18.4543 296.444 18.4543Z" fill="#99CBFF"/>
<path d="M432.204 90.5148V324.72C432.204 329.588 428.246 333.531 423.36 333.531H81.7035C76.8174 333.531 72.8281 329.588 72.8281 324.72V90.5148C72.8281 85.6471 76.7865 81.6729 81.7035 81.6729H423.329C428.215 81.7037 432.204 85.6471 432.204 90.5148Z" fill="#080319"/>
<path d="M423.329 333.932H81.7035C76.6009 333.932 72.457 329.803 72.457 324.72V90.5149C72.457 85.4315 76.6009 81.3032 81.7035 81.3032H423.329C428.432 81.3032 432.575 85.4315 432.575 90.5149V324.72C432.575 329.803 428.432 333.932 423.329 333.932ZM81.7035 82.0734C77.0339 82.0734 73.2301 85.8629 73.2301 90.5149V324.72C73.2301 329.372 77.0339 333.161 81.7035 333.161H423.329C427.999 333.161 431.802 329.372 431.802 324.72V90.5149C431.802 85.8629 427.999 82.0734 423.329 82.0734H81.7035Z" fill="#99CBFF"/>
<path d="M432.204 90.5148V104.409H72.8594V90.5148C72.8594 85.6471 76.8177 81.6729 81.7348 81.6729H423.36C428.215 81.7037 432.204 85.6471 432.204 90.5148Z" fill="#080319"/>
<path d="M432.575 104.81H72.457V90.5149C72.457 85.4315 76.6009 81.3032 81.7035 81.3032H423.329C428.432 81.3032 432.575 85.4315 432.575 90.5149V104.81ZM73.2301 104.04H431.802V90.5149C431.802 85.8629 427.999 82.0734 423.329 82.0734H81.7035C77.0339 82.0734 73.2301 85.8629 73.2301 90.5149V104.04Z" fill="#99CBFF"/>
<path d="M92.8054 97.1696C95.0769 97.1696 96.9184 95.3351 96.9184 93.0721C96.9184 90.8091 95.0769 88.9746 92.8054 88.9746C90.5338 88.9746 88.6924 90.8091 88.6924 93.0721C88.6924 95.3351 90.5338 97.1696 92.8054 97.1696Z" fill="#047FFF"/>
<path d="M108.515 88.9436C106.227 88.9436 104.402 90.7921 104.402 93.0411C104.402 95.3209 106.258 97.1386 108.515 97.1386C110.804 97.1386 112.628 95.2901 112.628 93.0411C112.659 90.7921 110.804 88.9436 108.515 88.9436Z" fill="#047FFF"/>
<path d="M124.256 97.1696C121.967 97.1696 120.143 95.3211 120.143 93.0721C120.143 90.7923 121.998 88.9746 124.256 88.9746C126.544 88.9746 128.369 90.8231 128.369 93.0721C128.369 95.3211 126.513 97.1696 124.256 97.1696ZM124.256 89.714C122.4 89.714 120.916 91.2236 120.916 93.0413C120.916 94.8898 122.431 96.3686 124.256 96.3686C126.111 96.3686 127.595 94.859 127.595 93.0413C127.595 91.2236 126.08 89.714 124.256 89.714Z" fill="#99CBFF"/>
<path d="M225.689 97.6317H149.057C146.521 97.6317 144.48 95.5676 144.48 93.0721C144.48 90.5458 146.552 88.5125 149.057 88.5125H225.689C228.225 88.5125 230.266 90.5766 230.266 93.0721C230.297 95.5676 228.225 97.6317 225.689 97.6317ZM149.057 89.2519C146.954 89.2519 145.254 90.9463 145.254 93.0413C145.254 95.1362 146.954 96.8307 149.057 96.8307H225.689C227.792 96.8307 229.493 95.1362 229.493 93.0413C229.493 90.9463 227.792 89.2519 225.689 89.2519H149.057Z" fill="#99CBFF"/>
<path opacity="0.23" d="M323.163 213.409C323.163 250.287 293.166 280.202 256.149 280.202C219.132 280.202 189.104 250.318 189.104 213.409C189.104 178.812 215.514 150.375 249.346 146.987L251.572 168.891C228.905 171.14 211.216 190.211 211.216 213.409C211.216 238.118 231.317 258.174 256.118 258.174C280.92 258.174 301.021 238.148 301.021 213.409C301.021 209.096 300.403 204.937 299.258 200.994L320.504 194.894C322.235 200.747 323.163 206.97 323.163 213.409Z" fill="#047FFF"/>
<path d="M256.118 267.324C286.007 267.324 310.237 243.186 310.237 213.409C310.237 183.633 286.007 159.495 256.118 159.495C226.23 159.495 202 183.633 202 213.409C202 243.186 226.23 267.324 256.118 267.324Z" fill="#07397C"/>
<path d="M256.118 251.612C277.296 251.612 294.465 234.508 294.465 213.409C294.465 192.311 277.296 175.207 256.118 175.207C234.94 175.207 217.771 192.311 217.771 213.409C217.771 234.508 234.94 251.612 256.118 251.612Z" fill="#047FFF"/>
<path d="M260.509 232.202V237.994H253.118V232.449C247.861 232.141 242.789 230.724 239.635 228.783L243.624 219.787C247.088 221.82 251.695 223.145 255.747 223.145C259.272 223.145 260.54 222.405 260.54 221.142C260.54 216.552 240.222 220.249 240.222 206.601C240.222 200.685 244.521 195.725 253.149 194.524V188.824H260.54V194.401C264.436 194.77 268.209 195.756 271.209 197.451L267.467 206.385C263.849 204.567 260.416 203.674 257.231 203.674C253.613 203.674 252.438 204.721 252.438 205.984C252.438 210.39 272.755 206.724 272.755 220.218C272.724 225.856 268.642 230.785 260.509 232.202Z" fill="white"/>
<path d="M494.734 36.0149H348.924V124.835H494.734V36.0149Z" fill="#080319"/>
<path d="M495.105 125.236H348.521V35.6145H495.105V125.236ZM349.295 124.466H494.332V36.3847H349.295V124.466Z" fill="#99CBFF"/>
<path d="M375.642 96.5535H367.262V111.896H375.642V96.5535Z" fill="#CCE5FF"/>
<path d="M392.434 89.5601H384.054V111.927H392.434V89.5601Z" fill="#CCE5FF"/>
<path d="M409.226 95.2903H400.846V111.927H409.226V95.2903Z" fill="#CCE5FF"/>
<path d="M426.018 83.5833H417.638V111.927H426.018V83.5833Z" fill="#CCE5FF"/>
<path d="M442.78 76.0967H434.399V111.927H442.78V76.0967Z" fill="#CCE5FF"/>
<path d="M459.572 65.4062H451.191V111.927H459.572V65.4062Z" fill="#CCE5FF"/>
<path d="M476.364 48.9238H467.983V111.896H476.364V48.9238Z" fill="#CCE5FF"/>
<path d="M373.941 56.4102H367.262V63.9274H373.941V56.4102Z" fill="#CCE5FF"/>
<path d="M429.42 59.8916H384.239V61.8325H429.42V59.8916Z" fill="#CCE5FF"/>
<path d="M363.52 169.877L354.274 144.46C343.852 148.219 336.399 158.17 336.399 169.877C336.399 184.789 348.553 196.896 363.52 196.896C378.488 196.896 390.641 184.789 390.641 169.877C390.641 165.379 389.528 161.159 387.58 157.431L363.52 169.877Z" fill="#EBEBFF"/>
<path d="M391.198 147.788C386.682 139.131 377.591 133.215 367.138 133.215C363.891 133.215 360.799 133.77 357.892 134.817L367.138 160.234L391.198 147.788Z" fill="#66B0FF"/>
<path d="M401.929 256.479H337.76V317.326H401.929V256.479Z" fill="#29273B"/>
<path d="M383.745 272.654H347.811V275.211H383.745V272.654Z" fill="white"/>
<path d="M383.745 280.356H347.811V282.913H383.745V280.356Z" fill="white"/>
<path d="M156.974 140.178H101.186V234.143H156.974V140.178Z" fill="#29273B"/>
<path d="M146.273 153.764H109.689V187.13H146.273V153.764Z" fill="#080319"/>
<path d="M109.959 153.497L109.437 154.065L146.024 187.436L146.546 186.868L109.959 153.497Z" fill="#EBEBFF"/>
<path d="M145.983 153.495L109.4 186.866L109.922 187.434L146.505 154.063L145.983 153.495Z" fill="#EBEBFF"/>
<path d="M127.997 178.534H0.371094V262.302H127.997V178.534Z" fill="#080319"/>
<path d="M128.368 262.703H0V178.165H128.368V262.703ZM0.742193 261.963H127.626V178.904H0.742193V261.963Z" fill="#99CBFF"/>
<path d="M13.8232 242.092L22.0492 226.688L39.0578 242.616L50.4072 209.744L71.5288 232.85L85.4449 227.212L110.71 194.339" fill="white"/>
<path d="M39.2437 243.294L22.1732 227.304L14.1637 242.277L13.4834 241.907L21.9568 226.072L38.9035 241.907L50.2529 209.004L71.6528 232.388L85.2287 226.873L110.401 194.093L111.02 194.586L85.6926 227.52L71.4363 233.312L71.2507 233.096L50.5621 210.483L39.2437 243.294Z" fill="#99CBFF"/>
<path d="M22.1426 228.752C23.3211 228.752 24.2764 227.801 24.2764 226.626C24.2764 225.452 23.3211 224.501 22.1426 224.501C20.9641 224.501 20.0088 225.452 20.0088 226.626C20.0088 227.801 20.9641 228.752 22.1426 228.752Z" fill="#99CBFF"/>
<path d="M38.9346 244.341C40.1131 244.341 41.0684 243.389 41.0684 242.215C41.0684 241.041 40.1131 240.09 38.9346 240.09C37.7561 240.09 36.8008 241.041 36.8008 242.215C36.8008 243.389 37.7561 244.341 38.9346 244.341Z" fill="#99CBFF"/>
<path d="M50.5313 211.993C51.7097 211.993 52.6651 211.041 52.6651 209.867C52.6651 208.693 51.7097 207.741 50.5313 207.741C49.3528 207.741 48.3975 208.693 48.3975 209.867C48.3975 211.041 49.3528 211.993 50.5313 211.993Z" fill="#99CBFF"/>
<path d="M91.2276 191.905H37.1094V192.675H91.2276V191.905Z" fill="#99CBFF"/>
<path d="M303.836 381.038C301.548 366.096 304.702 350.384 312.557 337.475C320.412 324.567 332.936 314.523 347.316 309.655C339.183 315.324 334.235 324.474 330.771 333.747C327.308 343.021 325.05 352.725 320.752 361.66C316.484 370.594 309.743 378.912 300.403 382.24L303.836 381.038Z" fill="#99CBFF"/>
<path d="M301.578 381.161C301.269 363.909 297.898 346.687 291.682 330.574C289.487 324.844 286.827 319.144 282.528 314.739C278.23 310.364 271.983 307.468 265.922 308.546C273.468 314.184 277.364 323.427 279.591 332.546C281.786 341.665 282.652 351.154 285.745 360.027C288.837 368.9 294.775 377.434 303.65 380.607L301.578 381.161Z" fill="#99CBFF"/>
<path d="M300.403 382.301C296.105 370.717 291.404 358.856 282.714 350.045C274.024 341.234 260.294 336.181 248.944 341.11C258.129 343.175 266.571 348.504 272.416 355.868C276.684 361.29 279.56 367.698 283.982 373.028C288.373 378.358 295.084 382.64 301.887 381.377L300.403 382.301Z" fill="#CCE5FF"/>
<path d="M299.011 381.5C297.249 368.807 295.486 355.898 297.342 343.205C299.197 330.512 305.227 317.85 316.02 310.857C310.052 316.679 308.041 325.521 308.041 333.871C308.041 342.189 309.742 350.476 309.866 358.794C309.99 367.113 308.351 375.986 302.691 382.116L299.011 381.5Z" fill="#CCE5FF"/>
<path d="M304.979 379.652C309.123 369.146 313.515 358.271 321.957 350.723C327.369 345.886 334.265 342.713 341.44 341.727C336.399 345.732 333.214 351.616 330.616 357.501C328.018 363.385 325.73 369.516 321.926 374.723C318.122 379.929 312.432 384.212 305.969 384.489L304.979 379.652Z" fill="#CCE5FF"/>
<path d="M325.978 411.6H279.529L272.386 376.016H333.153L325.978 411.6Z" fill="#080014"/>
<path d="M326.287 412.001H279.22L271.891 375.647H333.585L326.287 412.001ZM279.869 411.23H325.669L332.689 376.417H272.849L279.869 411.23Z" fill="#99CBFF"/>
<path d="M409.135 390.188V411.6H381.271L394.012 401.248L394.693 388.186L409.135 390.188Z" fill="#CCE5FF"/>
<path d="M394.314 400.951L393.781 401.509L399.092 406.542L399.625 405.983L394.314 400.951Z" fill="#1B1B43"/>
<path d="M406.413 395.888H396.889V396.658H406.413V395.888Z" fill="#1B1B43"/>
<path d="M441.699 391.205L442.688 411.6H414.825L426.577 401.556V389.202L441.699 391.205Z" fill="#CCE5FF"/>
<path d="M426.847 401.243L426.335 401.82L430.669 405.634L431.181 405.057L426.847 401.243Z" fill="#1B1B43"/>
<path d="M439.163 396.257H429.762V397.028H439.163V396.257Z" fill="#1B1B43"/>
<path d="M411.948 267.17C412.412 309.809 415.968 351.801 422.772 393.053H446.244C441.358 361.505 439.162 323.18 441.883 272.408L424.937 258.575L411.948 267.17Z" fill="#FFA121"/>
<path d="M393.363 272.808L382.725 319.883C380.158 331.19 380.004 342.897 382.199 354.296L389.652 392.745H413.124L406.011 342.281L422.989 265.353L393.363 272.808Z" fill="#FFA121"/>
<path d="M413.526 317.912C413.464 316.957 412.134 295.298 411.98 292.556L405.856 290.338L406.135 289.63L412.753 292.033V292.31C412.753 292.772 413.773 309.255 414.299 317.881L413.526 317.912Z" fill="#BE443D"/>
<path d="M464.335 166.55L465.603 163.562C465.603 163.562 461.057 154.042 462.51 152.779C463.964 151.516 466.283 155.09 466.283 155.09C466.283 155.09 465.603 143.536 467.829 143.444C469.716 143.352 469.561 146.71 469.747 151.731C469.747 151.731 470.922 150.191 473.025 151.793C473.983 150.191 476.024 151.269 476.581 152.224C477.261 151.454 480.045 151.639 479.674 154.936C479.179 159.095 477.261 166.766 477.261 166.766L471.076 171.88L464.335 166.55Z" fill="#FFBC96"/>
<path d="M414.67 206.416L424.071 206.355C440.554 204.876 453.45 191.536 453.45 191.536L464.335 166.581L477.292 166.766L469.685 196.095C468.603 200.316 466.252 204.106 462.943 206.94L435.915 230.293L414.67 206.416Z" fill="#047FFF"/>
<path d="M388.909 227.643L393.362 272.808L441.852 272.377L440.182 217.969L414.669 206.416L397.011 213.841L388.909 227.643Z" fill="#047FFF"/>
<path d="M358.882 232.049C358.078 231.34 357.088 230.909 356.037 230.847C350.687 230.416 333.926 229.122 334.08 230.416C334.266 231.956 347.038 237.748 347.038 237.748C349.759 240.798 352.48 243.879 355.233 246.929L362.716 235.469L358.882 232.049Z" fill="#FFBC96"/>
<path d="M395.435 210.76C391.971 211.376 389.002 213.533 387.425 216.676L373.138 244.65L362.716 235.438L355.232 246.899C356.129 247.915 357.057 248.932 357.954 249.979C362.005 254.508 366.736 260.608 373.045 261.933C376.261 262.611 379.261 261.286 381.58 259.068C383.281 257.435 384.796 255.463 386.003 253.461L391.693 244.095L409.876 208.296L395.435 210.76Z" fill="#047FFF"/>
<path d="M389.282 227.61L388.513 227.685L391.226 255.466L391.996 255.391L389.282 227.61Z" fill="#CCE5FF"/>
<path d="M440.492 226.226L435.946 230.293L440.771 238.272L440.492 226.226Z" fill="#1B1B43"/>
<path d="M471.448 157.462C469.623 157.462 469.469 155.09 469.469 151.731H470.056C470.056 155.706 470.396 156.907 471.448 156.907C471.664 156.907 471.85 156.815 472.005 156.661C472.53 156.106 472.716 154.812 472.778 153.672C472.747 152.841 472.747 152.101 472.778 151.793H473.365C473.365 151.855 473.427 152.656 473.365 153.611C473.458 155.182 473.705 156.722 474.231 156.876C474.54 156.969 474.788 156.938 475.004 156.753C475.623 156.291 475.994 155.028 476.179 153.888C476.21 153.395 476.241 152.841 476.365 152.194L476.953 152.255C476.953 152.317 476.922 152.964 476.798 153.796C476.767 154.997 476.891 156.168 477.385 156.353C477.757 156.507 478.035 156.507 478.282 156.353C478.932 155.952 479.179 154.597 479.21 154.104L479.798 154.134C479.798 154.227 479.643 156.199 478.592 156.846C478.19 157.092 477.695 157.123 477.138 156.876C477.014 156.815 476.581 156.568 476.334 155.675C476.118 156.322 475.777 156.876 475.344 157.215C474.973 157.493 474.54 157.554 474.077 157.4C473.582 157.246 473.242 156.599 473.056 155.798C472.901 156.291 472.716 156.753 472.438 157.03C472.159 157.308 471.819 157.462 471.448 157.462Z" fill="#D28572"/>
<path d="M410.587 217.353C406.474 217.692 402.856 214.642 402.516 210.514L402.423 209.466L401.248 194.925L410.34 194.216L416.185 193.754L417.422 209.312C417.762 213.441 414.7 217.045 410.587 217.353Z" fill="#FFBC96"/>
<path d="M413.247 199.146C410.433 204.106 406.382 207.68 402.423 209.497L401.248 194.956L410.34 194.247L413.247 199.146Z" fill="#1B1B43"/>
<path d="M416.216 183.926L414.422 199.084C414.422 199.084 408.608 204.598 400.135 204.352C397.043 204.26 395.218 201.333 394.136 197.605C393.703 196.065 393.393 194.37 393.177 192.676C392.466 187.099 392.806 181.615 392.806 181.615L405.949 177.271L416.216 183.926Z" fill="#FFBC96"/>
<path d="M414.237 190.18C412.876 185.313 410.402 182.879 407.093 182.355C396.517 188.055 389.652 184.666 384.673 178.319C396.919 180.691 402.269 163.377 413.989 174.93C422.679 177.549 422.525 185.836 417.608 192.583L414.237 190.18Z" fill="#1B1B43"/>
<path d="M419.668 192.024C420.117 189.736 418.863 187.567 416.869 187.179C414.874 186.791 412.894 188.331 412.445 190.618C411.996 192.906 413.25 195.075 415.244 195.463C417.239 195.851 419.22 194.312 419.668 192.024Z" fill="#FFBC96"/>
<path d="M417.422 189.749C416.804 189.841 416.432 190.303 416.123 190.827C415.845 191.351 415.659 191.936 415.536 192.583H415.319C415.226 192.244 415.226 191.875 415.288 191.536C415.35 191.197 415.474 190.858 415.628 190.55C415.814 190.242 416.03 189.965 416.371 189.749C416.68 189.533 417.082 189.441 417.453 189.533L417.422 189.749Z" fill="#1B1B43"/>
<path d="M395.929 190.766C395.929 191.413 395.62 191.967 395.218 191.967C394.816 191.967 394.507 191.444 394.507 190.766C394.507 190.088 394.816 189.564 395.218 189.564C395.62 189.595 395.929 190.119 395.929 190.766Z" fill="#1B1B43"/>
<path d="M401.774 190.303C401.774 191.012 401.434 191.597 401.001 191.597C400.568 191.597 400.228 191.012 400.228 190.303C400.228 189.595 400.568 189.01 401.001 189.01C401.434 189.01 401.774 189.595 401.774 190.303Z" fill="#1B1B43"/>
<path d="M397.537 191.752C397.537 191.967 397.444 192.214 397.352 192.399C397.228 192.583 397.104 192.768 396.949 192.891C396.671 193.2 396.424 193.477 396.362 193.754C396.3 194.031 396.393 194.339 396.609 194.617C396.826 194.894 397.135 195.14 397.444 195.449L397.321 195.633C396.95 195.479 396.578 195.264 396.238 194.956C396.084 194.802 395.929 194.617 395.836 194.37C395.743 194.124 395.713 193.877 395.774 193.6C395.836 193.354 395.96 193.138 396.115 192.953C396.269 192.768 396.424 192.645 396.578 192.522C396.888 192.275 397.166 192.029 397.29 191.69L397.537 191.752Z" fill="#1B1B43"/>
<path d="M398.094 198.16C398.898 197.975 399.671 197.728 400.351 197.297C400.691 197.081 401.001 196.866 401.31 196.588C401.619 196.311 401.897 196.034 402.207 195.757L402.392 195.88C402.021 196.65 401.403 197.328 400.63 197.79C399.856 198.252 398.96 198.468 398.094 198.375V198.16Z" fill="#1B1B43"/>
<path d="M400.073 187.099C399.918 187.962 402.64 188.239 403.134 188.332C403.536 188.393 404.124 188.455 404.217 187.839C404.309 187.069 403.505 187.007 403.011 186.884C402.578 186.791 400.258 186.268 400.073 187.099Z" fill="#1B1B43"/>
<path d="M396.269 187.623C396.269 188.455 394.074 188.547 393.672 188.609C393.331 188.64 392.898 188.64 392.929 188.054C392.96 187.315 393.641 187.315 394.012 187.223C394.383 187.192 396.3 186.853 396.269 187.623Z" fill="#1B1B43"/>
<path opacity="0.2" d="M406.506 195.695C408.06 195.695 409.32 194.44 409.32 192.891C409.32 191.343 408.06 190.088 406.506 190.088C404.951 190.088 403.691 191.343 403.691 192.891C403.691 194.44 404.951 195.695 406.506 195.695Z" fill="#7000FF"/>
<path opacity="0.2" d="M395.249 195.387C395.249 196.311 394.816 197.112 394.105 197.605C393.672 196.065 393.363 194.37 393.146 192.676C394.383 192.984 395.249 194.093 395.249 195.387Z" fill="#7000FF"/>
<path d="M195.506 285.347H141.728V288.952H195.506V285.347Z" fill="#99CBFF"/>
<path d="M195.506 285.347H150.077L167.271 243.571H212.7L195.506 285.347Z" fill="white"/>
<path d="M195.753 285.747H149.489L167.024 243.201H213.287L195.753 285.747ZM150.664 284.977H195.258L212.143 243.971H167.549L150.664 284.977Z" fill="#99CBFF"/>
<path d="M191.578 281.835H155.891L169.405 248.993H205.092L191.578 281.835Z" fill="#EBEBFF"/>
<path d="M220.431 288.952H133.656V295.822H220.431V288.952Z" fill="#CCE5FF"/>
<path d="M63.6423 341.233H62.8691V411.815H63.6423V341.233Z" fill="#CCE5FF"/>
<path d="M84.4551 344.499H42.0264C42.9232 340.217 46.7269 337.136 51.1182 337.136H75.3632C79.7545 337.136 83.5583 340.217 84.4551 344.499Z" fill="#CCE5FF"/>
<path d="M74.2498 411.6H52.2314C52.2314 408.92 54.3962 406.763 57.0866 406.763H69.4256C72.0851 406.763 74.2498 408.92 74.2498 411.6Z" fill="#CCE5FF"/>
<path d="M95.9902 236.516C97.0726 238.056 98.6188 240.274 98.8044 242.185C99.0518 244.988 94.5677 243.016 94.5059 243.263L95.9902 236.516Z" fill="#D28572"/>
<path d="M89.1251 239.812H74.9307V260.546H89.1251V239.812Z" fill="#FFBC96"/>
<path d="M89.1251 243.355V258.143C84.641 255.34 80.7754 251.181 77.4355 246.374L89.1251 243.355Z" fill="#1B1B43"/>
<path d="M97.1034 237.779C96.6704 244.926 93.8872 253.029 86.3416 251.057C80.404 249.486 73.8789 244.526 73.8789 237.348C73.8789 230.169 78.8578 224.346 85.0118 224.346C88.8465 224.346 93.7016 226.195 95.9592 229.8C97.3508 231.925 97.2889 234.636 97.1034 237.779Z" fill="#FFBC96"/>
<path d="M84.5482 235.684C86.5584 230.385 91.1661 229.861 91.1661 229.861C91.1661 229.861 101.835 240.367 101.155 229.522C100.629 220.896 92.1867 221.728 92.1867 221.728C88.0427 216.367 81.4249 218.462 79.0127 221.574C76.6006 224.685 77.4665 222.898 71.7763 224.901C66.0862 226.934 69.1168 235.53 68.1272 236.177C60.5507 236.177 61.9732 243.633 61.9732 243.633L79.8786 249.455L84.1772 237.717L84.5482 235.684Z" fill="#1B1B43"/>
<path d="M85.7501 241.3C87.2291 240.449 87.5282 238.206 86.418 236.291C85.3079 234.375 83.2089 233.512 81.7298 234.363C80.2508 235.214 79.9517 237.456 81.0619 239.372C82.172 241.287 84.271 242.15 85.7501 241.3Z" fill="#FFBC96"/>
<path d="M84.1156 238.611C83.8682 238.118 83.6517 237.656 83.3115 237.317C83.1569 237.163 82.9404 237.009 82.724 236.886C82.5075 236.762 82.2601 236.67 82.0127 236.547L82.0436 236.331C82.3219 236.3 82.6003 236.362 82.9095 236.454C83.1878 236.547 83.4662 236.701 83.6826 236.947C83.8991 237.163 84.0537 237.44 84.1465 237.717C84.2393 237.995 84.3011 238.272 84.3011 238.549L84.1156 238.611Z" fill="#1B1B43"/>
<path d="M77.4363 225.761C80.7631 225.604 83.3217 222.57 83.1511 218.983C82.9806 215.397 80.1454 212.617 76.8186 212.774C73.4918 212.931 70.9332 215.966 71.1038 219.552C71.2743 223.138 74.1095 225.918 77.4363 225.761Z" fill="#1B1B43"/>
<path opacity="0.2" d="M90.9499 244.557C92.4529 244.557 93.6713 243.343 93.6713 241.846C93.6713 240.348 92.4529 239.135 90.9499 239.135C89.4469 239.135 88.2285 240.348 88.2285 241.846C88.2285 243.343 89.4469 244.557 90.9499 244.557Z" fill="#7000FF"/>
<path d="M101.557 311.534L56.0664 305.742L64.6326 260.7C65.2201 257.558 67.3539 254.878 70.2608 253.553C72.7039 252.444 75.4871 252.382 77.992 253.368L93.4853 260.238C96.4541 261.563 98.526 264.367 98.8971 267.571L99.763 282.266L100.753 298.934L101.557 311.534Z" fill="#FFA121"/>
<path d="M143.181 279.185L155.211 275.673C156.077 275.427 157.004 275.55 157.777 276.043C161.086 278.23 169.838 284.392 167.642 286.918C166.529 288.181 156.479 285.224 156.479 285.224L141.913 289.291L143.181 279.185Z" fill="#FFBC96"/>
<path d="M100.814 298.964C97.0104 294.158 94.7839 287.812 94.0107 279.956L99.7937 282.297L100.814 298.964Z" fill="#1B1B43"/>
<path d="M92.1556 259.684L93.9802 260.454C97.7221 262.056 101.062 264.428 103.783 267.417L118.72 283.807L143.212 279.186L146.429 292.279L115.658 301.86C113.215 302.292 110.741 301.46 109.071 299.642L86.8984 275.581L92.1556 259.684Z" fill="#FFA121"/>
<path d="M118.41 284.084C118.349 283.992 111.05 276.105 104.742 269.05C98.4949 262.087 89.001 258.698 88.9082 258.667L89.1556 257.928C89.2484 257.959 98.9278 261.409 105.298 268.526C111.607 275.581 118.874 283.468 118.967 283.529L118.41 284.084Z" fill="#1B1B43"/>
<path d="M88.7086 278.129L88.1533 278.665L108.789 299.884L109.344 299.348L88.7086 278.129Z" fill="#1B1B43"/>
<path d="M99.9174 379.651L90.1143 398.691L114.885 411.384L108.298 396.349L113.679 384.427L99.9174 379.651Z" fill="#CCE5FF"/>
<path d="M108.172 395.983L101.142 398.045L101.36 398.784L108.391 396.722L108.172 395.983Z" fill="#1B1B43"/>
<path d="M115.349 392.16L92.8975 383.811L108.267 336.15C110.896 329.095 119.06 325.614 126.451 328.356C133.842 331.097 137.707 339.046 135.079 346.101L115.349 392.16Z" fill="#26289C"/>
<path d="M137.12 388.956L139.316 411.6H167.179L154.438 401.248L151.438 388.185L137.12 388.956Z" fill="#CCE5FF"/>
<path d="M154.246 400.879L147.639 404.508L148.012 405.183L154.62 401.553L154.246 400.879Z" fill="#1B1B43"/>
<path d="M157.221 391.636L132.853 395.487L116.184 346.625L113.153 337.721L71.7453 338.06C61.5092 338.307 53.3451 329.557 54.3656 319.39L56.0974 305.773L97.0726 310.918L124.008 313.876C135.203 315.816 138.666 322.563 140.986 331.251L157.221 391.636Z" fill="#047FFF"/>
<path d="M116.215 346.625L113.185 337.721L118.782 337.536C119.277 340.894 117.947 344.653 116.215 346.625Z" fill="#1B1B43"/>
</g>
<defs>
<clipPath id="clip0_970_2451">
<rect width="511" height="412" fill="white"/>
</clipPath>
</defs>
</svg>
