<svg width="304" height="65" viewBox="0 0 304 65" fill="none" xmlns="http://www.w3.org/2000/svg">
<rect y="0.5" width="64" height="64" rx="16" fill="#413A47"/>
<path d="M43.4494 24.3596C39.7243 21.5724 36.1557 21.6504 36.1557 21.6504L35.7909 22.0671C40.2193 23.3957 42.2773 25.3493 42.2773 25.3493C35.9416 21.861 27.8712 21.886 21.2811 25.3493C21.2811 25.3493 23.4171 23.2914 28.1061 21.9628L27.8456 21.6501C27.8456 21.6501 24.3029 21.572 20.5518 24.3592C20.5518 24.3592 16.8008 31.1061 16.8008 39.4159C16.8008 39.4159 18.9889 43.1669 24.7461 43.3493C24.7461 43.3493 25.7099 42.2031 26.4913 41.2133C23.1829 40.2236 21.9326 38.1656 21.9326 38.1656C24.011 39.4661 26.1128 40.2802 28.7317 40.7967C32.9928 41.6738 38.2929 40.772 42.2513 38.1656C42.2513 38.1656 40.9489 40.2757 37.5365 41.2396C38.3179 42.2034 39.2558 43.3234 39.2558 43.3234C45.0123 43.1413 47.2005 39.3903 47.2005 39.4162C47.2005 31.1064 43.4494 24.3596 43.4494 24.3596ZM27.1422 36.9938C25.6833 36.9938 24.4853 35.7173 24.4853 34.1282C24.5918 30.3228 29.7195 30.3346 29.7995 34.1282C29.7992 35.7173 28.627 36.9938 27.1422 36.9938ZM36.6504 36.9938C35.1915 36.9938 33.9934 35.7173 33.9934 34.1282C34.1105 30.3301 39.1742 30.3285 39.3077 34.1282C39.3073 35.7173 38.1352 36.9938 36.6504 36.9938Z" fill="#047FFF"/>
<rect x="80" y="0.5" width="64" height="64" rx="16" fill="#413A47"/>
<path d="M125.334 24.2331C124.331 24.6679 123.272 24.9553 122.187 25.0865C123.331 24.4029 124.189 23.3275 124.6 22.0598C123.525 22.6999 122.348 23.1509 121.12 23.3931C120.3 22.5032 119.207 21.9109 118.013 21.7089C116.82 21.507 115.593 21.7069 114.525 22.2774C113.458 22.8478 112.61 23.7565 112.114 24.8609C111.618 25.9653 111.503 27.203 111.787 28.3798C109.613 28.2698 107.486 27.7037 105.545 26.7183C103.604 25.7328 101.892 24.35 100.52 22.6598C100.039 23.5 99.7864 24.4516 99.787 25.4198C99.7853 26.319 100.006 27.2046 100.429 27.9979C100.853 28.7911 101.466 29.4674 102.214 29.9665C101.344 29.9428 100.494 29.7095 99.7337 29.2865V29.3531C99.7402 30.613 100.182 31.8319 100.983 32.8037C101.785 33.7756 102.898 34.4406 104.134 34.6865C103.658 34.8312 103.164 34.9075 102.667 34.9131C102.323 34.9091 101.98 34.8779 101.64 34.8198C101.992 35.9035 102.673 36.8507 103.588 37.5293C104.504 38.208 105.608 38.5845 106.747 38.6065C104.823 40.1201 102.448 40.9463 100 40.9531C99.5546 40.9546 99.1093 40.9279 98.667 40.8731C101.166 42.4868 104.079 43.3434 107.054 43.3398C109.107 43.3611 111.143 42.9731 113.044 42.1986C114.946 41.424 116.674 40.2783 118.127 38.8285C119.581 37.3786 120.731 35.6536 121.51 33.7543C122.29 31.855 122.683 29.8194 122.667 27.7665C122.667 27.5398 122.667 27.2998 122.667 27.0598C123.713 26.2795 124.616 25.323 125.334 24.2331Z" fill="#DCDBDE"/>
<rect x="160" y="0.5" width="64" height="64" rx="16" fill="#413A47"/>
<path d="M206.666 29.4466C206.732 27.5382 206.315 25.644 205.453 23.94C204.868 23.2408 204.057 22.7689 203.16 22.6066C199.45 22.27 195.724 22.132 192 22.1933C188.289 22.1293 184.577 22.2628 180.88 22.5933C180.149 22.7263 179.472 23.0691 178.933 23.58C177.733 24.6866 177.6 26.58 177.466 28.18C177.273 31.0567 177.273 33.9432 177.466 36.82C177.505 37.7205 177.639 38.6144 177.866 39.4866C178.027 40.1601 178.352 40.7831 178.813 41.3C179.356 41.8379 180.048 42.2003 180.8 42.34C183.674 42.6948 186.571 42.8419 189.466 42.78C194.133 42.8466 198.226 42.78 203.066 42.4066C203.836 42.2755 204.548 41.9127 205.106 41.3666C205.48 40.9932 205.758 40.5361 205.92 40.0333C206.397 38.5701 206.631 37.0388 206.613 35.5C206.666 34.7533 206.666 30.2466 206.666 29.4466ZM188.986 36.3V28.0466L196.88 32.1933C194.666 33.42 191.746 34.8066 188.986 36.3Z" fill="#DCDBDE"/>
<rect x="240" y="0.5" width="64" height="64" rx="16" fill="#413A47"/>
<path d="M272 29.1932C271.346 29.1932 270.707 29.3871 270.163 29.7504C269.619 30.1138 269.196 30.6302 268.945 31.2344C268.695 31.8386 268.63 32.5035 268.757 33.1449C268.885 33.7864 269.2 34.3756 269.662 34.838C270.125 35.3004 270.714 35.6154 271.355 35.743C271.997 35.8706 272.662 35.8051 273.266 35.5548C273.87 35.3045 274.386 34.8807 274.75 34.3369C275.113 33.7931 275.307 33.1538 275.307 32.4998C275.307 32.0656 275.221 31.6356 275.055 31.2344C274.889 30.8332 274.646 30.4687 274.338 30.1617C274.031 29.8546 273.667 29.6111 273.266 29.4449C272.865 29.2787 272.435 29.1932 272 29.1932ZM285.24 25.9265C285.233 24.8968 285.044 23.8766 284.68 22.9132C284.413 22.2082 283.999 21.568 283.465 21.0348C282.932 20.5015 282.292 20.0875 281.587 19.8198C280.624 19.4565 279.603 19.2669 278.574 19.2598C276.854 19.1665 276.347 19.1665 272 19.1665C267.654 19.1665 267.147 19.1665 265.427 19.2598C264.397 19.2669 263.377 19.4565 262.414 19.8198C261.709 20.0875 261.068 20.5015 260.535 21.0348C260.002 21.568 259.588 22.2082 259.32 22.9132C258.957 23.8766 258.767 24.8968 258.76 25.9265C258.667 27.6465 258.667 28.1532 258.667 32.4998C258.667 36.8465 258.667 37.3532 258.76 39.0732C258.775 40.1064 258.964 41.1298 259.32 42.0998C259.587 42.8016 260 43.4381 260.534 43.9665C261.065 44.5029 261.706 44.917 262.414 45.1798C263.377 45.5432 264.397 45.7328 265.427 45.7398C267.147 45.8332 267.654 45.8332 272 45.8332C276.347 45.8332 276.854 45.8332 278.574 45.7398C279.603 45.7328 280.624 45.5432 281.587 45.1798C282.294 44.917 282.936 44.5029 283.467 43.9665C284 43.4381 284.414 42.8016 284.68 42.0998C285.043 41.1317 285.233 40.1071 285.24 39.0732C285.334 37.3532 285.334 36.8465 285.334 32.4998C285.334 28.1532 285.334 27.6465 285.24 25.9265ZM281.854 36.5932C281.811 37.416 281.635 38.2264 281.334 38.9932C281.075 39.6328 280.69 40.2138 280.202 40.7016C279.714 41.1895 279.133 41.5743 278.494 41.8332C277.72 42.118 276.905 42.2756 276.08 42.2998C275.027 42.2998 274.747 42.2998 272 42.2998C269.254 42.2998 268.974 42.2998 267.92 42.2998C267.096 42.2756 266.281 42.118 265.507 41.8332C264.846 41.5875 264.249 41.1955 263.76 40.6865C263.277 40.2082 262.904 39.6303 262.667 38.9932C262.381 38.22 262.228 37.4041 262.214 36.5798C262.214 35.5265 262.214 35.2465 262.214 32.4998C262.214 29.7532 262.214 29.4732 262.214 28.4198C262.228 27.5956 262.381 26.7797 262.667 26.0065C262.913 25.3453 263.305 24.7482 263.814 24.2598C264.294 23.7793 264.871 23.4066 265.507 23.1665C266.281 22.8817 267.096 22.7241 267.92 22.6998C268.974 22.6998 269.254 22.6998 272 22.6998C274.747 22.6998 275.027 22.6998 276.08 22.6998C276.905 22.7241 277.72 22.8817 278.494 23.1665C279.155 23.4122 279.752 23.8042 280.24 24.3132C280.723 24.7915 281.097 25.3693 281.334 26.0065C281.618 26.7805 281.776 27.5955 281.8 28.4198C281.8 29.4732 281.8 29.7532 281.8 32.4998C281.8 35.2465 281.894 35.5265 281.854 36.5798V36.5932ZM279.72 26.6732C279.562 26.2425 279.311 25.8514 278.987 25.5268C278.662 25.2022 278.271 24.9519 277.84 24.7932C277.249 24.5882 276.626 24.4889 276 24.4998C274.96 24.4998 274.667 24.4998 272 24.4998C269.334 24.4998 269.04 24.4998 268 24.4998C267.371 24.506 266.748 24.6233 266.16 24.8465C265.736 24.998 265.349 25.2381 265.025 25.5508C264.701 25.8634 264.447 26.2415 264.28 26.6598C264.087 27.2537 263.992 27.8753 264 28.4998C264 29.5398 264 29.8332 264 32.4998C264 35.1665 264 35.4598 264 36.4998C264.014 37.1281 264.131 37.7498 264.347 38.3398C264.506 38.7705 264.756 39.1616 265.081 39.4862C265.405 39.8108 265.796 40.0611 266.227 40.2198C266.796 40.4291 267.395 40.5461 268 40.5665C269.04 40.5665 269.334 40.5665 272 40.5665C274.667 40.5665 274.96 40.5665 276 40.5665C276.629 40.5604 277.252 40.443 277.84 40.2198C278.271 40.0611 278.662 39.8108 278.987 39.4862C279.311 39.1616 279.562 38.7705 279.72 38.3398C279.943 37.7517 280.061 37.1288 280.067 36.4998C280.067 35.4598 280.067 35.1665 280.067 32.4998C280.067 29.8332 280.067 29.5398 280.067 28.4998C280.067 27.8702 279.95 27.2461 279.72 26.6598V26.6732ZM272 37.5932C271.332 37.5932 270.67 37.4613 270.053 37.2052C269.436 36.9491 268.875 36.5737 268.404 36.1006C267.932 35.6274 267.558 35.0658 267.303 34.448C267.049 33.8301 266.919 33.1681 266.92 32.4998C266.92 31.4919 267.219 30.5066 267.78 29.6688C268.34 28.8309 269.136 28.1781 270.068 27.7929C270.999 27.4078 272.024 27.3078 273.012 27.5054C274.001 27.703 274.908 28.1894 275.62 28.903C276.332 29.6167 276.816 30.5255 277.011 31.5144C277.206 32.5033 277.103 33.5278 276.715 34.4582C276.328 35.3887 275.673 36.1832 274.834 36.7413C273.994 37.2993 273.008 37.5958 272 37.5932ZM277.334 28.4065C277.039 28.3753 276.766 28.2361 276.568 28.0158C276.37 27.7955 276.26 27.5096 276.26 27.2132C276.26 26.9168 276.37 26.6309 276.568 26.4105C276.766 26.1902 277.039 26.051 277.334 26.0198C277.628 26.051 277.901 26.1902 278.099 26.4105C278.298 26.6309 278.407 26.9168 278.407 27.2132C278.407 27.5096 278.298 27.7955 278.099 28.0158C277.901 28.2361 277.628 28.3753 277.334 28.4065Z" fill="#DCDBDE"/>
</svg>
