<svg width="128" height="56" viewBox="0 0 128 56" fill="none" xmlns="http://www.w3.org/2000/svg">
<circle cx="28" cy="28" r="28" fill="#413A47"/>
<path fill-rule="evenodd" clip-rule="evenodd" d="M36.3292 18C37.252 18 38 18.7475 38 19.6708V36.3292C38 37.252 37.2525 38 36.3292 38H19.6708C18.748 38 18 37.2525 18 36.3292V19.6708C18 18.748 18.7475 18 19.6708 18H36.3292ZM31.5187 25.5C30.0993 25.5 29.1281 26.1274 28.6957 26.8563L28.625 26.9858V25.625H25.9167V35.2083H28.8333V30.5662C28.8333 29.0104 29.4062 28.0208 30.7833 28.0208C31.7331 28.0208 32.1316 28.8607 32.1644 30.358L32.1667 30.5662V35.2083H35.0833V29.9154C35.0833 27.0575 34.3996 25.5 31.5187 25.5ZM23.8333 25.5H20.9167V35.0833H23.8333V25.5ZM22.375 20.5C21.3396 20.5 20.5 21.3396 20.5 22.375C20.5 23.4104 21.3396 24.25 22.375 24.25C23.4104 24.25 24.25 23.4104 24.25 22.375C24.25 21.3396 23.4104 20.5 22.375 20.5Z" fill="white"/>
<circle cx="100" cy="28" r="28" fill="#413A47"/>
<path fill-rule="evenodd" clip-rule="evenodd" d="M103.174 21.3203H105V18.1406C104.686 18.0977 103.602 18 102.341 18C99.7083 18 97.9053 19.6562 97.9053 22.6992V25.5H95V29.0547H97.9053V38H101.466V29.0547H104.254L104.697 25.5H101.466V23.0508C101.466 22.0234 101.742 21.3203 103.174 21.3203Z" fill="white"/>
</svg>
