<svg width="144" height="24" viewBox="0 0 144 24" fill="none" xmlns="http://www.w3.org/2000/svg">
<path d="M20.5871 5.89464C17.7932 3.80424 15.1167 3.8628 15.1167 3.8628L14.8431 4.17528C18.1645 5.17176 19.7079 6.63696 19.7079 6.63696C14.9562 4.02072 8.90339 4.03944 3.96083 6.63696C3.96083 6.63696 5.56283 5.09352 9.07955 4.09704L8.88419 3.86256C8.88419 3.86256 6.22715 3.804 3.41387 5.8944C3.41387 5.8944 0.600586 10.9546 0.600586 17.1869C0.600586 17.1869 2.24171 20.0002 6.55955 20.137C6.55955 20.137 7.28243 19.2773 7.86851 18.535C5.38715 17.7926 4.44947 16.2492 4.44947 16.2492C6.00827 17.2246 7.58459 17.8351 9.54875 18.2225C12.7446 18.8803 16.7197 18.204 19.6885 16.2492C19.6885 16.2492 18.7117 17.8318 16.1523 18.5546C16.7384 19.2775 17.4419 20.1175 17.4419 20.1175C21.7592 19.981 23.4003 17.1677 23.4003 17.1871C23.4003 10.9548 20.5871 5.89464 20.5871 5.89464ZM8.35667 15.3703C7.26251 15.3703 6.36395 14.413 6.36395 13.2211C6.44387 10.367 10.2896 10.3759 10.3496 13.2211C10.3494 14.413 9.47027 15.3703 8.35667 15.3703ZM15.4878 15.3703C14.3936 15.3703 13.4951 14.413 13.4951 13.2211C13.5829 10.3726 17.3807 10.3714 17.4807 13.2211C17.4805 14.413 16.6014 15.3703 15.4878 15.3703Z" fill="#047FFF"/>
<path d="M62 5.8C61.2483 6.12609 60.4534 6.34166 59.64 6.44C60.4982 5.92732 61.1413 5.12078 61.45 4.17C60.6436 4.65006 59.7608 4.98829 58.84 5.17C58.2245 4.50257 57.405 4.05829 56.5098 3.90685C55.6147 3.7554 54.6945 3.90535 53.8938 4.33319C53.093 4.76102 52.4569 5.44253 52.0852 6.27083C51.7135 7.09914 51.6273 8.02739 51.84 8.91C50.2094 8.82752 48.6144 8.40295 47.1587 7.66386C45.7029 6.92477 44.4188 5.88769 43.39 4.62C43.0291 5.25016 42.8395 5.96382 42.84 6.69C42.8387 7.36438 43.0042 8.02861 43.3218 8.62356C43.6393 9.21851 44.099 9.72571 44.66 10.1C44.008 10.0823 43.3699 9.90729 42.8 9.59V9.64C42.8049 10.5849 43.136 11.4991 43.7373 12.228C44.3386 12.9568 45.1733 13.4556 46.1 13.64C45.7433 13.7486 45.3729 13.8058 45 13.81C44.7419 13.807 44.4844 13.7836 44.23 13.74C44.4939 14.5528 45.0046 15.2631 45.6911 15.7722C46.3775 16.2812 47.2056 16.5635 48.06 16.58C46.6172 17.7153 44.8359 18.3349 43 18.34C42.6657 18.3411 42.3317 18.3211 42 18.28C43.8744 19.4903 46.0588 20.1327 48.29 20.13C49.8297 20.146 51.3571 19.855 52.7831 19.2741C54.2091 18.6931 55.505 17.8339 56.5952 16.7465C57.6854 15.6591 58.548 14.3654 59.1326 12.9409C59.7172 11.5164 60.012 9.98972 60 8.45C60 8.28 60 8.1 60 7.92C60.7847 7.33481 61.4615 6.61742 62 5.8Z" fill="#B9B6BD"/>
<path d="M103 9.71001C103.049 8.27867 102.736 6.85803 102.09 5.58001C101.651 5.05561 101.043 4.70172 100.37 4.58001C97.5875 4.32754 94.7936 4.22406 92 4.27001C89.2167 4.22197 86.4327 4.32211 83.66 4.57001C83.1118 4.66973 82.6045 4.92686 82.2 5.31001C81.3 6.14001 81.2 7.56001 81.1 8.76002C80.9549 10.9176 80.9549 13.0825 81.1 15.24C81.129 15.9154 81.2295 16.5858 81.4 17.24C81.5206 17.7451 81.7645 18.2124 82.11 18.6C82.5173 19.0035 83.0364 19.2752 83.6 19.38C85.7559 19.6461 87.9282 19.7564 90.1 19.71C93.6 19.76 96.67 19.71 100.3 19.43C100.877 19.3317 101.411 19.0596 101.83 18.65C102.11 18.3699 102.319 18.0271 102.44 17.65C102.798 16.5526 102.973 15.4041 102.96 14.25C103 13.69 103 10.31 103 9.71001ZM89.74 14.85V8.66001L95.66 11.77C94 12.69 91.81 13.73 89.74 14.85Z" fill="#B9B6BD"/>
<path d="M132 9.52C131.51 9.52 131.03 9.66545 130.622 9.93795C130.214 10.2105 129.896 10.5978 129.709 11.0509C129.521 11.5041 129.472 12.0028 129.568 12.4838C129.663 12.9649 129.9 13.4068 130.246 13.7536C130.593 14.1005 131.035 14.3367 131.516 14.4323C131.997 14.528 132.496 14.4789 132.949 14.2912C133.402 14.1035 133.79 13.7856 134.062 13.3778C134.335 12.97 134.48 12.4905 134.48 12C134.48 11.6743 134.416 11.3518 134.291 11.0509C134.167 10.7501 133.984 10.4767 133.754 10.2464C133.523 10.0161 133.25 9.83341 132.949 9.70878C132.648 9.58415 132.326 9.52 132 9.52ZM141.93 7.07C141.925 6.29776 141.783 5.53257 141.51 4.81C141.309 4.28126 140.999 3.80109 140.599 3.40119C140.199 3.00128 139.719 2.69072 139.19 2.49C138.467 2.21746 137.702 2.07526 136.93 2.07C135.64 2 135.26 2 132 2C128.74 2 128.36 2 127.07 2.07C126.298 2.07526 125.533 2.21746 124.81 2.49C124.281 2.69072 123.801 3.00128 123.401 3.40119C123.001 3.80109 122.691 4.28126 122.49 4.81C122.217 5.53257 122.075 6.29776 122.07 7.07C122 8.36 122 8.74 122 12C122 15.26 122 15.64 122.07 16.93C122.081 17.705 122.223 18.4725 122.49 19.2C122.69 19.7263 123 20.2037 123.4 20.6C123.798 21.0023 124.279 21.3129 124.81 21.51C125.533 21.7825 126.298 21.9247 127.07 21.93C128.36 22 128.74 22 132 22C135.26 22 135.64 22 136.93 21.93C137.702 21.9247 138.467 21.7825 139.19 21.51C139.721 21.3129 140.202 21.0023 140.6 20.6C141 20.2037 141.31 19.7263 141.51 19.2C141.782 18.4739 141.924 17.7055 141.93 16.93C142 15.64 142 15.26 142 12C142 8.74 142 8.36 141.93 7.07ZM139.39 15.07C139.358 15.6871 139.226 16.295 139 16.87C138.806 17.3497 138.517 17.7854 138.151 18.1514C137.785 18.5173 137.35 18.8059 136.87 19C136.29 19.2136 135.678 19.3318 135.06 19.35C134.27 19.35 134.06 19.35 132 19.35C129.94 19.35 129.73 19.35 128.94 19.35C128.322 19.3318 127.71 19.2136 127.13 19C126.634 18.8157 126.186 18.5217 125.82 18.14C125.458 17.7813 125.178 17.3479 125 16.87C124.786 16.2901 124.671 15.6782 124.66 15.06C124.66 14.27 124.66 14.06 124.66 12C124.66 9.94 124.66 9.73 124.66 8.94C124.671 8.32183 124.786 7.70988 125 7.13C125.184 6.6341 125.478 6.18628 125.86 5.82C126.22 5.45962 126.653 5.18009 127.13 5C127.71 4.78641 128.322 4.66821 128.94 4.65C129.73 4.65 129.94 4.65 132 4.65C134.06 4.65 134.27 4.65 135.06 4.65C135.678 4.66821 136.29 4.78641 136.87 5C137.366 5.18428 137.814 5.47827 138.18 5.86C138.542 6.21875 138.822 6.65213 139 7.13C139.214 7.71049 139.332 8.32173 139.35 8.94C139.35 9.73 139.35 9.94 139.35 12C139.35 14.06 139.42 14.27 139.39 15.06V15.07ZM137.79 7.63C137.671 7.30698 137.483 7.01364 137.24 6.77021C136.996 6.52678 136.703 6.33906 136.38 6.22C135.936 6.06626 135.469 5.99179 135 6C134.22 6 134 6 132 6C130 6 129.78 6 129 6C128.528 6.00461 128.061 6.09263 127.62 6.26C127.302 6.37366 127.012 6.55371 126.769 6.7882C126.525 7.02269 126.335 7.30624 126.21 7.62C126.065 8.06537 125.994 8.5316 126 9C126 9.78 126 10 126 12C126 14 126 14.22 126 15C126.01 15.4712 126.098 15.9375 126.26 16.38C126.379 16.703 126.567 16.9964 126.81 17.2398C127.054 17.4832 127.347 17.6709 127.67 17.79C128.097 17.9469 128.546 18.0347 129 18.05C129.78 18.05 130 18.05 132 18.05C134 18.05 134.22 18.05 135 18.05C135.472 18.0454 135.939 17.9574 136.38 17.79C136.703 17.6709 136.996 17.4832 137.24 17.2398C137.483 16.9964 137.671 16.703 137.79 16.38C137.957 15.9389 138.045 15.4717 138.05 15C138.05 14.22 138.05 14 138.05 12C138.05 10 138.05 9.78 138.05 9C138.05 8.5278 137.962 8.05972 137.79 7.62V7.63ZM132 15.82C131.499 15.82 131.003 15.7211 130.54 15.529C130.077 15.3369 129.656 15.0554 129.302 14.7005C128.948 14.3457 128.668 13.9245 128.477 13.4611C128.286 12.9977 128.189 12.5012 128.19 12C128.19 11.2441 128.414 10.5051 128.834 9.87669C129.255 9.24828 129.852 8.75866 130.55 8.46983C131.249 8.181 132.018 8.10594 132.759 8.25415C133.5 8.40236 134.181 8.76717 134.715 9.30241C135.249 9.83764 135.612 10.5192 135.758 11.2609C135.904 12.0026 135.827 12.771 135.536 13.4688C135.246 14.1666 134.755 14.7625 134.125 15.1811C133.495 15.5996 132.756 15.822 132 15.82ZM136 8.93C135.779 8.9066 135.574 8.80222 135.426 8.63697C135.277 8.47172 135.195 8.25729 135.195 8.035C135.195 7.81271 135.277 7.59828 135.426 7.43303C135.574 7.26778 135.779 7.1634 136 7.14C136.221 7.1634 136.426 7.26778 136.574 7.43303C136.723 7.59828 136.805 7.81271 136.805 8.035C136.805 8.25729 136.723 8.47172 136.574 8.63697C136.426 8.80222 136.221 8.9066 136 8.93Z" fill="#B9B6BD"/>
</svg>
