<svg width="20" height="20" viewBox="0 0 20 20" fill="none" xmlns="http://www.w3.org/2000/svg">
<path fill-rule="evenodd" clip-rule="evenodd" d="M7.96258 8.19321C8.19441 8.03866 8.33366 7.77847 8.33366 7.49984V4.1665C8.33366 2.78579 7.21437 1.6665 5.83366 1.6665H2.50033C2.04009 1.6665 1.66699 2.0396 1.66699 2.49984C1.66699 10.7841 9.21605 18.3332 17.5003 18.3332C17.9606 18.3332 18.3337 17.9601 18.3337 17.4998V14.1665C18.3337 12.7858 17.2144 11.6665 15.8337 11.6665H12.5003C12.2217 11.6665 11.9615 11.8058 11.807 12.0376L10.2192 14.4193C8.48982 13.3011 6.9747 11.8242 5.80928 10.124L5.58089 9.781L7.96258 8.19321ZM12.9463 13.3332H15.8336C16.2939 13.3332 16.667 13.7063 16.667 14.1665V16.6376C15.0526 16.5259 13.4771 16.0941 12.0076 15.4095L11.6704 15.247L12.9463 13.3332ZM3.36255 3.33317H5.83365C6.29389 3.33317 6.66699 3.70627 6.66699 4.1665V7.05385L4.75314 8.32975C3.97434 6.76521 3.48285 5.07172 3.36255 3.33317Z" fill="url(#paint0_linear_930_2447)"/>
<defs>
<linearGradient id="paint0_linear_930_2447" x1="1.66699" y1="18.3332" x2="21.0123" y2="14.1982" gradientUnits="userSpaceOnUse">
<stop stop-color="#047FFF"/>
<stop offset="1" stop-color="#6304FF"/>
</linearGradient>
</defs>
</svg>
